#N canvas 0 24 1366 721 8;
#X obj 16 39 import mrpeach;
#X obj 10 5 udpreceive 9004;
#X obj 10 55 unpackOSC;
#X obj 10 105 routeOSC /channel0;
#X obj 10 155 unpack f f f f;
#X obj 106 7 at_synth;
#X obj 10 205 routeOSC /channel1;
#X obj 10 255 unpack f f f f;
#X obj 574 7 at_synth;
#X obj 10 305 routeOSC /channel2;
#X obj 10 355 unpack f f f f;
#X obj 101 215 at_synth;
#X obj 10 405 routeOSC /channel3;
#X obj 10 455 unpack f f f f;
#X obj 578 215 at_synth;
#X obj 10 505 routeOSC /channel4;
#X obj 10 555 unpack f f f f;
#X obj 109 418 at_synth;
#X obj 10 605 routeOSC /channel5;
#X obj 10 655 unpack f f f f;
#X obj 577 422 at_synth;
#X obj 10 705 routeOSC /channel6;
#X obj 10 755 unpack f f f f;
#X obj 102 620 at_synth;
#X obj 10 805 routeOSC /channel7;
#X obj 10 855 unpack f f f f;
#X obj 578 627 at_synth;
#X obj 10 905 routeOSC /channel8;
#X obj 10 955 unpack f f f f;
#X obj 109 829 at_synth;
#X obj 10 1005 routeOSC /channel9;
#X obj 10 1055 unpack f f f f;
#X obj 579 834 at_synth;
#X obj 10 1105 routeOSC /channel10;
#X obj 10 1155 unpack f f f f;
#X obj 112 1038 at_synth;
#X obj 10 1205 routeOSC /channel11;
#X obj 10 1255 unpack f f f f;
#X obj 581 1038 at_synth;
#X obj 10 1305 routeOSC /channel12;
#X obj 10 1355 unpack f f f f;
#X obj 119 1246 at_synth;
#X obj 10 1405 routeOSC /channel13;
#X obj 10 1455 unpack f f f f;
#X obj 588 1251 at_synth;
#X obj 10 1505 routeOSC /channel14;
#X obj 10 1555 unpack f f f f;
#X obj 118 1457 at_synth;
#X obj 10 1605 routeOSC /channel15;
#X obj 10 1655 unpack f f f f;
#X obj 587 1457 at_synth;
#X obj 10 1705 routeOSC /channel16;
#X obj 10 1755 unpack f f f f;
#X obj 119 1669 at_synth;
#X obj 10 1805 routeOSC /channel17;
#X obj 10 1855 unpack f f f f;
#X obj 589 1666 at_synth;
#X obj 10 1905 routeOSC /channel18;
#X obj 10 1955 unpack f f f f;
#X obj 113 1877 at_synth;
#X obj 10 2005 routeOSC /channel19;
#X obj 10 2055 unpack f f f f;
#X obj 602 2296 at_synth;
#X obj 10 2105 routeOSC /channel20;
#X obj 10 2155 unpack f f f f;
#X obj 104 2302 at_synth;
#X obj 10 2205 routeOSC /channel21;
#X obj 10 2255 unpack f f f f;
#X obj 590 2085 at_synth;
#X obj 10 2305 routeOSC /channel22;
#X obj 10 2355 unpack f f f f;
#X obj 596 1877 at_synth;
#X obj 10 2405 routeOSC /channel23;
#X obj 10 2455 unpack f f f f;
#X obj 104 2089 at_synth;
#X obj 10 2505 +~ 0;
#X obj 110 -15 hsl 120 20 0 1 0 0 empty empty vol_1 -2 -8 0 10 -262144
-1 -1 0 1;
#X floatatom 10 2555 5 0 0 0 - - -, f 5;
#X obj 10 2605 *~;
#X obj 10 2655 dac~;
#X connect 1 0 2 0;
#X connect 2 0 3 0;
#X connect 2 0 6 0;
#X connect 2 0 9 0;
#X connect 2 0 12 0;
#X connect 2 0 15 0;
#X connect 2 0 18 0;
#X connect 2 0 21 0;
#X connect 2 0 24 0;
#X connect 2 0 27 0;
#X connect 2 0 30 0;
#X connect 2 0 33 0;
#X connect 2 0 36 0;
#X connect 2 0 39 0;
#X connect 2 0 42 0;
#X connect 2 0 45 0;
#X connect 2 0 48 0;
#X connect 2 0 51 0;
#X connect 2 0 54 0;
#X connect 2 0 57 0;
#X connect 2 0 60 0;
#X connect 2 0 63 0;
#X connect 2 0 66 0;
#X connect 2 0 69 0;
#X connect 2 0 72 0;
#X connect 3 0 4 0;
#X connect 4 0 5 2;
#X connect 4 1 5 1;
#X connect 4 2 5 0;
#X connect 5 0 75 0;
#X connect 6 0 7 0;
#X connect 7 0 8 2;
#X connect 7 1 8 1;
#X connect 7 2 8 0;
#X connect 8 0 75 0;
#X connect 9 0 10 0;
#X connect 10 0 11 2;
#X connect 10 1 11 1;
#X connect 10 2 11 0;
#X connect 11 0 75 0;
#X connect 12 0 13 0;
#X connect 13 0 14 2;
#X connect 13 1 14 1;
#X connect 13 2 14 0;
#X connect 14 0 75 0;
#X connect 15 0 16 0;
#X connect 16 0 17 2;
#X connect 16 1 17 1;
#X connect 16 2 17 0;
#X connect 17 0 75 0;
#X connect 18 0 19 0;
#X connect 19 0 20 2;
#X connect 19 1 20 1;
#X connect 19 2 20 0;
#X connect 20 0 75 0;
#X connect 21 0 22 0;
#X connect 22 0 23 2;
#X connect 22 1 23 1;
#X connect 22 2 23 0;
#X connect 23 0 75 0;
#X connect 24 0 25 0;
#X connect 25 0 26 2;
#X connect 25 1 26 1;
#X connect 25 2 26 0;
#X connect 26 0 75 0;
#X connect 27 0 28 0;
#X connect 28 0 29 2;
#X connect 28 1 29 1;
#X connect 28 2 29 0;
#X connect 29 0 75 0;
#X connect 30 0 31 0;
#X connect 31 0 32 2;
#X connect 31 1 32 1;
#X connect 31 2 32 0;
#X connect 32 0 75 0;
#X connect 33 0 34 0;
#X connect 34 0 35 2;
#X connect 34 1 35 1;
#X connect 34 2 35 0;
#X connect 35 0 75 0;
#X connect 36 0 37 0;
#X connect 37 0 38 2;
#X connect 37 1 38 1;
#X connect 37 2 38 0;
#X connect 38 0 75 0;
#X connect 39 0 40 0;
#X connect 40 0 41 2;
#X connect 40 1 41 1;
#X connect 40 2 41 0;
#X connect 41 0 75 0;
#X connect 42 0 43 0;
#X connect 43 0 44 2;
#X connect 43 1 44 1;
#X connect 43 2 44 0;
#X connect 44 0 75 0;
#X connect 45 0 46 0;
#X connect 46 0 47 2;
#X connect 46 1 47 1;
#X connect 46 2 47 0;
#X connect 47 0 75 0;
#X connect 48 0 49 0;
#X connect 49 0 50 2;
#X connect 49 1 50 1;
#X connect 49 2 50 0;
#X connect 50 0 75 0;
#X connect 51 0 52 0;
#X connect 52 0 53 2;
#X connect 52 1 53 1;
#X connect 52 2 53 0;
#X connect 53 0 75 0;
#X connect 54 0 55 0;
#X connect 55 0 56 2;
#X connect 55 1 56 1;
#X connect 55 2 56 0;
#X connect 56 0 75 0;
#X connect 57 0 58 0;
#X connect 58 0 59 2;
#X connect 58 1 59 1;
#X connect 58 2 59 0;
#X connect 59 0 75 0;
#X connect 60 0 61 0;
#X connect 61 0 62 2;
#X connect 61 1 62 1;
#X connect 61 2 62 0;
#X connect 62 0 75 0;
#X connect 63 0 64 0;
#X connect 64 0 65 2;
#X connect 64 1 65 1;
#X connect 64 2 65 0;
#X connect 65 0 75 0;
#X connect 66 0 67 0;
#X connect 67 0 68 2;
#X connect 67 1 68 1;
#X connect 67 2 68 0;
#X connect 68 0 75 0;
#X connect 69 0 70 0;
#X connect 70 0 71 2;
#X connect 70 1 71 1;
#X connect 70 2 71 0;
#X connect 71 0 75 0;
#X connect 72 0 73 0;
#X connect 73 0 74 2;
#X connect 73 1 74 1;
#X connect 73 2 74 0;
#X connect 74 0 75 0;
#X connect 75 0 78 0;
#X connect 76 0 77 0;
#X connect 77 0 78 1;
#X connect 78 0 79 0;
#X connect 78 0 79 1;
