#N canvas 94 87 1043 686 8;
#X declare -lib mrpeach;
#X obj 16 39 import mrpeach;
#X obj 10 5 udpreceive 9004;
#X obj 10 55 unpackOSC;
#X obj 10 105 routeOSC /channel0;
#X obj 10 155 unpack f f f f;
#X obj 101 39 at_synth;
#X obj 10 205 routeOSC /channel1;
#X obj 10 255 unpack f f f f;
#X obj 568 41 at_synth;
#X obj 10 305 routeOSC /channel2;
#X obj 10 355 unpack f f f f;
#X obj 102 246 at_synth;
#X obj 10 405 routeOSC /channel3;
#X obj 10 455 unpack f f f f;
#X obj 574 248 at_synth;
#X obj 10 505 routeOSC /channel4;
#X obj 10 555 unpack f f f f;
#X obj 102 452 at_synth;
#X obj 10 605 routeOSC /channel5;
#X obj 10 655 unpack f f f f;
#X obj 576 456 at_synth;
#X obj 10 705 +~ 0;
#X obj 112 15 hsl 120 20 0 1 0 0 empty empty vol_1 -2 -8 0 10 -262144
-1 -1 5200 1;
#X floatatom 10 755 5 0 0 0 - - -;
#X obj 10 805 *~;
#X obj 59 837 writesf~ 2;
#X msg 52 762 open test.wav;
#X msg 77 787 start;
#X msg 133 793 stop;
#X obj 10 1055 dac~;
#X connect 1 0 2 0;
#X connect 2 0 3 0;
#X connect 2 0 6 0;
#X connect 2 0 9 0;
#X connect 2 0 12 0;
#X connect 2 0 15 0;
#X connect 2 0 18 0;
#X connect 3 0 4 0;
#X connect 4 0 5 2;
#X connect 4 1 5 1;
#X connect 4 2 5 0;
#X connect 5 0 21 0;
#X connect 6 0 7 0;
#X connect 7 0 8 2;
#X connect 7 1 8 1;
#X connect 7 2 8 0;
#X connect 8 0 21 0;
#X connect 9 0 10 0;
#X connect 10 0 11 2;
#X connect 10 1 11 1;
#X connect 10 2 11 0;
#X connect 11 0 21 0;
#X connect 12 0 13 0;
#X connect 13 0 14 2;
#X connect 13 1 14 1;
#X connect 13 2 14 0;
#X connect 14 0 21 0;
#X connect 15 0 16 0;
#X connect 16 0 17 2;
#X connect 16 1 17 1;
#X connect 16 2 17 0;
#X connect 17 0 21 0;
#X connect 18 0 19 0;
#X connect 19 0 20 2;
#X connect 19 1 20 1;
#X connect 19 2 20 0;
#X connect 20 0 21 0;
#X connect 21 0 24 0;
#X connect 22 0 23 0;
#X connect 23 0 24 1;
#X connect 24 0 25 0;
#X connect 24 0 25 1;
#X connect 24 0 29 0;
#X connect 24 0 29 1;
#X connect 26 0 25 0;
#X connect 27 0 25 0;
#X connect 28 0 25 0;
