#N canvas 100 100 370 200 at_synth.pd;
#X obj 50 150 bng 15 250 50 0 empty empty note on 17 7 0 10 -262144 -1 -1;
#X obj 10 5 inlet;
#X obj 10 55 sel 1;
#X obj 10 105 inlet;
#X floatatom 130 150 5 0 0 0 - - -;
#X obj 170 150 hsl 120 20 0 20 0 0 empty empty $0_twin_pitch_diff_$0 -2 -8 0 10 -262144 -1 -1 0 1;
#X obj 10 155 +~;
#X obj 10 205 phasor~ 0;
#X obj 10 255 +~ -0.5;
#X obj 10 305 phasor~ 0;
#X obj 10 355 +~ -0.5;
#X obj 10 405 +~;
#X obj 10 455 inlet;
#X obj 320 150 hsl 120 20 0 1000 0 0 empty empty cutoff_%s -2 -8 0 10 -262144 -1 -1 0 1;
#X floatatom 50 200 5 0 0 0 - - -;
#X obj 90 200 hsl 120 20 0 10 0 0 empty empty filter_res_$0 -2 -8 0 10 -262144 -1 -1 0 1;
#X floatatom 10 505 5 0 0 0 - - -;
#X obj 10 555 vcf~ 440 1;
#X obj 240 200 hsl 120 20 0 100 0 0 empty empty attack_$0 -2 -8 0 10 -262144 -1 -1 0 1;
#X floatatom 10 605 5 0 0 0 - - -;
#X obj 50 250 hsl 120 20 0 10000 0 0 empty empty decay_$0 -2 -8 0 10 -262144 -1 -1 0 1;
#X floatatom 10 655 5 0 0 0 - - -;
#X obj 10 705 pack f f;
#X msg 10 755 1 \$1 \, 0 \$2 \$1;
#X obj 10 805 vline~ ;
#X obj 10 855 *~;
#X obj 10 905 delwrite~ $0_echo_$0 1001;
#X obj 200 250 hsl 120 20 0 1000 0 0 empty empty $0_echo_$0_feedback_time -2 -8 0 10 -262144 -1 -1 0 1;
#X obj 10 955 vd~ $0_echo_$0;
#X obj 350 250 hsl 120 20 0 0.9 0 0 empty empty $0_echo_$0_feedback_gain -2 -8 0 10 -262144 -1 -1 0 1;
#X obj 10 1005 *~;
#X obj 50 300 hsl 120 20 0 1 0 0 empty empty vol_$0 -2 -8 0 10 -262144 -1 -1 0 1;
#X floatatom 10 1055 5 0 0 0 - - -;
#X obj 10 1105 *~;
#X obj 10 1155 outlet~ ;
#X connect 1 0 2 0;
#X connect 2 0 0 0;
#X connect 3 0 4 0;
#X connect 4 0 6 0;
#X connect 5 0 6 1;
#X connect 4 0 7 0;
#X connect 7 0 8 0;
#X connect 6 0 9 0;
#X connect 9 0 10 0;
#X connect 8 0 11 0;
#X connect 10 0 11 1;
#X connect 12 0 13 0;
#X connect 13 0 14 0;
#X connect 15 0 16 0;
#X connect 11 0 17 0;
#X connect 14 0 17 1;
#X connect 16 0 17 2;
#X connect 18 0 19 0;
#X connect 20 0 21 0;
#X connect 19 0 22 0;
#X connect 21 0 22 1;
#X connect 0 0 19 0;
#X connect 22 0 23 0;
#X connect 23 0 24 0;
#X connect 17 0 25 0;
#X connect 24 0 25 1;
#X connect 25 0 26 0;
#X connect 27 0 28 0;
#X connect 28 0 30 0;
#X connect 29 0 30 1;
#X connect 30 0 26 0;
#X connect 31 0 32 0;
#X connect 28 0 33 0;
#X connect 32 0 33 1;
#X connect 33 0 34 0;
#X coords 0 -1 1 1 460 200 1 40 135;
